<svg width="24" height="14" viewBox="0 0 24 14" fill="none" xmlns="http://www.w3.org/2000/svg">
<path d="M0.158629 6.61546L5.61305 1.161C5.80898 0.932204 6.15332 0.905532 6.38211 1.10151C6.61091 1.29745 6.63758 1.64179 6.4416 1.87058C6.42331 1.89191 6.40344 1.91183 6.38211 1.93006L1.8604 6.45726H23.4546C23.7558 6.45726 24 6.70148 24 7.00274C24 7.304 23.7558 7.54816 23.4546 7.54816H1.8604L6.38211 12.0699C6.6109 12.2658 6.63758 12.6102 6.44159 12.8389C6.24561 13.0677 5.90132 13.0944 5.67253 12.8984C5.6512 12.8801 5.63128 12.8603 5.61305 12.8389L0.158581 7.38448C-0.0528679 7.17181 -0.0528654 6.82822 0.158629 6.61546Z" fill="#042658" stroke="#042658" stroke-width="0.0351556"/>
</svg>
