<svg width="16" height="15" viewBox="0 0 16 15" fill="none" xmlns="http://www.w3.org/2000/svg">
<mask id="mask0_1_964" style="mask-type:alpha" maskUnits="userSpaceOnUse" x="0" y="0" width="16" height="15">
<rect x="0.5" width="15" height="15" fill="white"/>
</mask>
<g mask="url(#mask0_1_964)">
<path d="M15.0306 7.03122H9.09325C8.83451 7.03122 8.62451 6.82123 8.62451 6.56249C8.62451 6.30374 8.83451 6.09375 9.09325 6.09375H15.0306C15.2893 6.09375 15.4993 6.30374 15.4993 6.56249C15.4993 6.82123 15.2893 7.03122 15.0306 7.03122Z" fill="white"/>
<path d="M12.6871 9.37472C12.5628 9.37499 12.4435 9.32549 12.3558 9.23726C12.1727 9.05407 12.1727 8.75722 12.3558 8.57412L14.3683 6.56172L12.3558 4.54923C12.1727 4.36613 12.1727 4.06927 12.3558 3.88617C12.539 3.70296 12.8359 3.70296 13.019 3.88617L15.3627 6.22985C15.5458 6.41295 15.5458 6.70981 15.3627 6.89291L13.019 9.23659C12.9313 9.32519 12.8118 9.37494 12.6871 9.37472ZM5.49989 14.9995C5.36612 14.9995 5.23921 14.9808 5.11239 14.9414L1.35119 13.6883C0.839394 13.5096 0.5 13.0327 0.5 12.4997V1.25C0.5 0.560637 1.06064 0 1.75 0C1.88365 0 2.01059 0.0187494 2.1375 0.0581232L5.89858 1.31123C6.41047 1.48996 6.74977 1.96684 6.74977 2.49989V13.7495C6.74977 14.4389 6.18925 14.9995 5.49989 14.9995ZM1.75 0.937472C1.57812 0.937472 1.43747 1.07809 1.43747 1.25V12.4997C1.43747 12.6328 1.52682 12.7564 1.65432 12.8009L5.39791 14.0483C5.4248 14.057 5.45984 14.0621 5.49989 14.0621C5.67177 14.0621 5.8123 13.9214 5.8123 13.7495V2.49989C5.8123 2.36679 5.72295 2.24308 5.59545 2.19869L1.85186 0.951212C1.82497 0.942511 1.78993 0.937472 1.75 0.937472Z" fill="white"/>
<path d="M10.0309 5.00013C9.77217 5.00013 9.56217 4.79014 9.56217 4.5314V1.71898C9.56217 1.28833 9.21165 0.937716 8.78102 0.937716H1.74999C1.49124 0.937716 1.28125 0.727722 1.28125 0.46898C1.28125 0.210238 1.49124 0.000244141 1.74999 0.000244141H8.78102C9.72913 0.000244141 10.4996 0.770875 10.4996 1.71898V4.5314C10.4996 4.79014 10.2896 5.00013 10.0309 5.00013ZM8.78102 13.1248H6.28102C6.02228 13.1248 5.81228 12.9149 5.81228 12.6561C5.81228 12.3974 6.02228 12.1874 6.28102 12.1874H8.78102C9.21167 12.1874 9.56217 11.8367 9.56217 11.4061V8.59369C9.56217 8.33495 9.77217 8.12496 10.0309 8.12496C10.2896 8.12496 10.4996 8.33495 10.4996 8.59369V11.4061C10.4996 12.3542 9.72916 13.1248 8.78102 13.1248Z" fill="white"/>
</g>
</svg>
