<svg width="16" height="15" viewBox="0 0 16 15" fill="none" xmlns="http://www.w3.org/2000/svg">
<mask id="mask0_1_951" style="mask-type:alpha" maskUnits="userSpaceOnUse" x="0" y="0" width="16" height="15">
<rect x="0.5" width="15" height="15" fill="white"/>
</mask>
<g mask="url(#mask0_1_951)">
<path d="M13.2975 2.20063C11.5952 0.4911 9.17235 -0.29171 6.79152 0.0985313C3.69258 0.619064 1.24003 3.00456 0.633809 6.08788C0.335517 7.64253 0.538878 9.25176 1.21455 10.6833L0.798079 12.7507C0.690321 13.2935 0.860553 13.8543 1.25188 14.2456C1.6432 14.6369 2.20399 14.8072 2.74682 14.6994L4.81143 14.2863C5.8068 14.757 6.89424 15.0007 7.99525 15C8.47001 14.9998 8.94372 14.9555 9.41028 14.8678C12.495 14.2606 14.8809 11.806 15.4003 8.70528C15.7907 6.32473 15.0076 3.90216 13.2975 2.20063ZM14.0521 8.49535C13.7373 10.4278 12.518 12.0934 10.771 12.9774C9.02395 13.8613 6.9597 13.8571 5.21631 12.9661C5.1206 12.9168 5.01451 12.8911 4.90685 12.8911C4.86107 12.8911 4.81541 12.8957 4.77053 12.9047L2.4803 13.3628C2.38348 13.3819 2.28349 13.3515 2.2137 13.2817C2.14391 13.212 2.11352 13.112 2.13268 13.0151L2.59073 10.7242C2.62102 10.5739 2.59939 10.4177 2.52938 10.2812C1.63894 8.53742 1.6353 6.47315 2.51959 4.72626C3.40388 2.97937 5.06965 1.76017 7.00214 1.4454C8.95211 1.12794 10.9358 1.76775 12.3327 3.16474C13.7297 4.56173 14.3695 6.54538 14.0521 8.49535Z" fill="white"/>
<path d="M8.67668 9.54711V6.82065C8.67668 6.44421 8.37151 6.13904 7.99507 6.13904H7.31345C6.93701 6.13904 6.63184 6.44421 6.63184 6.82065C6.63184 7.1971 6.93701 7.50227 7.31345 7.50227V10.2287C7.31345 10.6052 7.61862 10.9103 7.99507 10.9103H8.67668C9.05313 10.9103 9.3583 10.6052 9.3583 10.2287C9.3583 9.85228 9.05313 9.54711 8.67668 9.54711Z" fill="white"/>
<circle cx="7.99509" cy="4.77585" r="0.681615" fill="white"/>
</g>
</svg>
