<?xml version="1.0" encoding="iso-8859-1"?>
<!-- Uploaded to: SVG Repo, www.svgrepo.com, Generator: SVG Repo Mixer Tools -->
<svg version="1.1" id="Layer_1" xmlns="http://www.w3.org/2000/svg" xmlns:xlink="http://www.w3.org/1999/xlink" 
	 viewBox="0 0 512 512" xml:space="preserve">
<circle style="fill:#E6E5E5;" cx="256" cy="256" r="256"/>
<g>
	<path style="fill:#232323;" d="M459.96,398.696V122.744c0-6.6-5.4-12-12-12H64.112c-6.6,0-12,5.4-12,12v275.952
		C52.12,398.696,460.968,398.696,459.96,398.696z"/>
	<rect x="67.112" y="125.744" style="fill:#232323;" width="377.84" height="257.92"/>
</g>
<rect x="16" y="398.696" style="fill:#D8D8D8;" width="479.92" height="7.504"/>
<polygon style="fill:#AAAAAA;" points="472.008,421.192 40.08,421.192 16.08,406.2 496,406.2 "/>
<g style="opacity:0.7;">
	<path style="fill:#FFFFFF;" d="M296.304,398.696h-80.688c0.768,4.208,4.52,7.504,9.216,7.504h62.248
		C291.784,406.2,295.544,402.904,296.304,398.696z"/>
</g>
<g>
	<rect x="368" y="351.744" style="fill:#E6E5E5;" width="32" height="8"/>
	<rect x="316.8" y="351.744" style="fill:#E6E5E5;" width="32" height="8"/>
	<rect x="265.6" y="351.744" style="fill:#E6E5E5;" width="32" height="8"/>
	<rect x="214.4" y="351.744" style="fill:#E6E5E5;" width="32" height="8"/>
	<rect x="163.2" y="351.744" style="fill:#E6E5E5;" width="32" height="8"/>
	<rect x="112" y="351.744" style="fill:#E6E5E5;" width="32" height="8"/>
	<rect x="368" y="149.696" style="fill:#E6E5E5;" width="32" height="8"/>
	<rect x="316.8" y="149.696" style="fill:#E6E5E5;" width="32" height="8"/>
	<rect x="265.6" y="149.696" style="fill:#E6E5E5;" width="32" height="8"/>
	<rect x="214.4" y="149.696" style="fill:#E6E5E5;" width="32" height="8"/>
	<rect x="163.2" y="149.696" style="fill:#E6E5E5;" width="32" height="8"/>
	<rect x="112" y="149.696" style="fill:#E6E5E5;" width="32" height="8"/>
</g>
<rect x="112" y="274.728" style="fill:#DB2B42;" width="15.784" height="34.616"/>
<rect x="137.648" y="254.944" style="fill:#8AD5DD;" width="15.784" height="54.4"/>
<rect x="163.288" y="232.728" style="fill:#DB2B42;" width="15.784" height="76.656"/>
<rect x="188.936" y="210.432" style="fill:#8AD5DD;" width="15.784" height="98.912"/>
<g>
	<rect x="214.584" y="195.6" style="fill:#DB2B42;" width="15.784" height="113.744"/>
	<rect x="281.6" y="274.728" style="fill:#DB2B42;" width="15.784" height="34.616"/>
</g>
<rect x="307.28" y="254.944" style="fill:#8AD5DD;" width="15.784" height="54.4"/>
<rect x="332.888" y="232.728" style="fill:#DB2B42;" width="15.784" height="76.656"/>
<rect x="358.536" y="210.432" style="fill:#8AD5DD;" width="15.784" height="98.912"/>
<rect x="384.16" y="195.6" style="fill:#DB2B42;" width="15.784" height="113.744"/>
</svg>