<svg width="16" height="15" viewBox="0 0 16 15" fill="none" xmlns="http://www.w3.org/2000/svg">
<mask id="mask0_1_960" style="mask-type:alpha" maskUnits="userSpaceOnUse" x="0" y="0" width="16" height="15">
<rect x="0.5" width="15" height="15" fill="white"/>
</mask>
<g mask="url(#mask0_1_960)">
<path d="M8.00033 15C7.78944 14.9998 7.58211 14.9456 7.39805 14.8427L5.01017 13.5163C2.59264 12.1722 1.093 9.62389 1.0918 6.85785L1.0918 3.17614C1.0918 2.5414 1.5717 2.00959 2.20297 1.94463C3.15299 1.84393 4.08798 1.63252 4.98892 1.31473C5.81499 1.02272 6.60743 0.643128 7.3527 0.18244C7.75019 -0.0608138 8.25047 -0.0608134 8.64796 0.182441C9.3933 0.643001 10.1857 1.02259 11.0117 1.31473C11.9127 1.63254 12.8478 1.84395 13.7978 1.94465C14.4291 2.00967 14.9089 2.54154 14.9089 3.17614V6.85785C14.9077 9.62389 13.408 12.1722 10.9905 13.5163L8.60261 14.8434C8.41851 14.9462 8.21116 15.0001 8.00033 15ZM8.00033 1.06248C7.96915 1.06221 7.9385 1.07054 7.91176 1.08657C7.10185 1.58715 6.24078 1.99975 5.3432 2.31735C4.36414 2.66291 3.34799 2.89263 2.3155 3.00183C2.22457 3.00956 2.15469 3.08559 2.15465 3.17685L2.15465 6.85856C2.15542 9.23868 3.44575 11.4315 5.52601 12.588L7.91388 13.9145C7.96713 13.9444 8.03211 13.9444 8.08536 13.9145L10.4746 12.588C12.5549 11.4315 13.8452 9.23868 13.846 6.85856V3.17614C13.846 3.08489 13.7761 3.00885 13.6852 3.00112C12.6527 2.89192 11.6365 2.6622 10.6575 2.31665C9.75994 1.99949 8.89887 1.58737 8.0889 1.08728C8.06229 1.07086 8.0316 1.06227 8.00033 1.06248Z" fill="white"/>
<path d="M7.64599 9.07851C7.5158 9.07862 7.39015 9.03069 7.29312 8.94389L5.69885 7.52675C5.49343 7.32884 5.48089 7.00405 5.67045 6.7909C5.86 6.57774 6.18403 6.55226 6.40458 6.73316L7.61198 7.80593L9.91553 5.34932C10.1163 5.1352 10.4526 5.12442 10.6667 5.32519C10.8807 5.52597 10.8915 5.86227 10.6907 6.07635L8.03357 8.91058C7.93328 9.01792 7.79289 9.07875 7.64599 9.07851Z" fill="white"/>
</g>
</svg>
