<svg width="16" height="15" viewBox="0 0 16 15" fill="none" xmlns="http://www.w3.org/2000/svg">
<mask id="mask0_1_955" style="mask-type:alpha" maskUnits="userSpaceOnUse" x="0" y="0" width="16" height="15">
<rect x="0.5" width="15" height="15" fill="white"/>
</mask>
<g mask="url(#mask0_1_955)">
<path d="M6.2337 7.85329L5.35479 3.45873C5.31372 3.25332 5.13337 3.10547 4.92389 3.10547L4.04499 3.10547C3.83551 3.10547 3.65516 3.25333 3.61409 3.45874L2.73518 7.85326C2.68758 8.09127 2.84194 8.32277 3.07992 8.37035C3.3179 8.41796 3.54943 8.26359 3.59701 8.02562L3.87791 6.62109H5.09097L5.37187 8.02565C5.41948 8.26374 5.6511 8.41799 5.88896 8.37038C6.12694 8.32277 6.28131 8.09127 6.2337 7.85329ZM4.05369 5.74219L4.40525 3.98438H4.56363L4.91519 5.74219H4.05369ZM13.2735 6.62109H11.9551V6.18164C11.9551 5.93895 11.7584 5.74219 11.5157 5.74219C11.273 5.74219 11.0762 5.93895 11.0762 6.18164V6.62109H9.75788C9.51518 6.62109 9.31843 6.81785 9.31843 7.06055C9.31843 7.30324 9.51518 7.5 9.75788 7.5H9.86423C10.1146 8.30895 10.4916 8.92986 10.9065 9.42744C10.5688 9.73629 10.2272 9.98956 9.92282 10.233C9.7333 10.3846 9.70257 10.6612 9.85421 10.8507C10.0059 11.0403 10.2825 11.0709 10.4719 10.9193C10.7779 10.6745 11.1447 10.4024 11.5157 10.062C11.8869 10.4026 12.2544 10.6752 12.5595 10.9193C12.749 11.0709 13.0256 11.0402 13.1772 10.8507C13.3288 10.6612 13.2981 10.3846 13.1086 10.233C12.805 9.99012 12.4629 9.73658 12.1249 9.42744C12.5398 8.92986 12.9168 8.30895 13.1672 7.5H13.2735C13.5162 7.5 13.713 7.30324 13.713 7.06055C13.713 6.81785 13.5162 6.62109 13.2735 6.62109ZM11.5157 8.78159C11.2352 8.42944 10.9828 8.00912 10.7926 7.49707H12.2388C12.0486 8.00912 11.7962 8.42944 11.5157 8.78159Z" fill="white"/>
<path d="M14.1816 2.66602H7.84177L7.65339 1.15482C7.57109 0.496465 7.00871 0 6.34522 0H1.81836C1.09142 0 0.5 0.591416 0.5 1.31836V11.0156C0.5 11.7426 1.09142 12.334 1.81836 12.334H5.52392L5.70989 13.8452C5.79204 14.5022 6.35442 15 7.01809 15H14.1816C14.9086 15 15.5 14.4086 15.5 13.6816V3.98438C15.5 3.25743 14.9086 2.66602 14.1816 2.66602ZM1.81836 11.4551C1.57604 11.4551 1.37891 11.2579 1.37891 11.0156V1.31836C1.37891 1.07604 1.57604 0.878906 1.81836 0.878906H6.34522C6.56639 0.878906 6.75386 1.04437 6.78125 1.26369L8.05168 11.4551H1.81836ZM6.55637 13.5278L6.40944 12.334H7.58847L6.55637 13.5278ZM14.6211 13.6816C14.6211 13.924 14.424 14.1211 14.1816 14.1211H7.20529L8.87826 12.1859C8.9636 12.0898 9.00247 11.961 8.98458 11.8337L7.95134 3.54492H14.1816C14.424 3.54492 14.6211 3.74206 14.6211 3.98438V13.6816Z" fill="white"/>
</g>
</svg>
